<svg xmlns="http://www.w3.org/2000/svg" viewBox="0 0 1200 900" role="img" aria-label="街头">
  <defs>
    <linearGradient id="sky" x1="0" y1="0" x2="1" y2="1">
      <stop offset="0" stop-color="#ffd5dc"/>
      <stop offset="1" stop-color="#d1d4f9"/>
    </linearGradient>
  </defs>
  <rect width="1200" height="900" fill="url(#sky)"/>
  <rect x="0" y="420" width="1200" height="480" fill="#f7f7f7"/>
  <path d="M0 640c160-80 300-70 420 20 130 98 260 98 390 0 120-90 250-100 390-20v260H0z" fill="#3b3b3b" fill-opacity=".9"/>
  <g opacity=".9">
    <rect x="90" y="210" width="260" height="520" rx="22" fill="#2b2f36"/>
    <rect x="390" y="170" width="260" height="560" rx="22" fill="#36404a"/>
    <rect x="690" y="230" width="240" height="500" rx="22" fill="#29313a"/>
    <rect x="960" y="260" width="170" height="470" rx="22" fill="#2f3a45"/>
  </g>
  <g fill="#ffffff" opacity=".16">
    <rect x="120" y="250" width="80" height="60" rx="10"/>
    <rect x="220" y="250" width="90" height="60" rx="10"/>
    <rect x="420" y="210" width="90" height="64" rx="10"/>
    <rect x="530" y="210" width="90" height="64" rx="10"/>
    <rect x="720" y="270" width="90" height="64" rx="10"/>
    <rect x="830" y="270" width="70" height="64" rx="10"/>
    <rect x="990" y="300" width="110" height="70" rx="12"/>
  </g>
  <g>
    <rect x="560" y="520" width="80" height="150" rx="16" fill="#bae8e8" fill-opacity=".65"/>
    <rect x="572" y="536" width="56" height="12" rx="6" fill="#ffffff" fill-opacity=".6"/>
    <rect x="572" y="560" width="56" height="12" rx="6" fill="#ffffff" fill-opacity=".6"/>
    <rect x="572" y="584" width="56" height="12" rx="6" fill="#ffffff" fill-opacity=".6"/>
  </g>
</svg>
