<svg xmlns="http://www.w3.org/2000/svg" viewBox="0 0 1200 900" role="img" aria-label="街头">
  <defs>
    <linearGradient id="sky" x1="0" y1="0" x2="0" y2="1">
      <stop offset="0" stop-color="#b6e3f4"/>
      <stop offset="1" stop-color="#ffdfbf"/>
    </linearGradient>
  </defs>
  <rect width="1200" height="900" fill="url(#sky)"/>
  <rect x="0" y="430" width="1200" height="470" fill="#f4f6f9"/>
  <g opacity=".9">
    <rect x="60" y="260" width="220" height="520" rx="18" fill="#29313a"/>
    <rect x="300" y="200" width="300" height="580" rx="18" fill="#2f3a45"/>
    <rect x="630" y="240" width="240" height="540" rx="18" fill="#36404a"/>
    <rect x="900" y="280" width="240" height="500" rx="18" fill="#2b2f36"/>
  </g>
  <path d="M430 900 500 500h200l70 400z" fill="#1f2329"/>
  <path d="M600 520v360" stroke="#ffffff" stroke-opacity=".26" stroke-width="12" stroke-dasharray="30 20"/>
  <g fill="#ffffff" opacity=".15">
    <rect x="90" y="310" width="70" height="54" rx="10"/>
    <rect x="180" y="310" width="70" height="54" rx="10"/>
    <rect x="330" y="250" width="90" height="64" rx="10"/>
    <rect x="440" y="250" width="120" height="64" rx="10"/>
    <rect x="660" y="290" width="80" height="60" rx="10"/>
    <rect x="760" y="290" width="80" height="60" rx="10"/>
    <rect x="930" y="330" width="90" height="66" rx="12"/>
    <rect x="1040" y="330" width="80" height="66" rx="12"/>
  </g>
</svg>
