<svg xmlns="http://www.w3.org/2000/svg" viewBox="0 0 1200 900" role="img" aria-label="街头">
  <defs>
    <linearGradient id="sky" x1="0" y1="0" x2="0" y2="1">
      <stop offset="0" stop-color="#c9e6ff"/>
      <stop offset="1" stop-color="#f7fbff"/>
    </linearGradient>
    <linearGradient id="road" x1="0" y1="0" x2="0" y2="1">
      <stop offset="0" stop-color="#3b3b3b"/>
      <stop offset="1" stop-color="#1e2227"/>
    </linearGradient>
  </defs>
  <rect width="1200" height="900" fill="url(#sky)"/>
  <rect x="0" y="380" width="1200" height="520" fill="#eef2f6"/>
  <path d="M420 900 520 420h160l100 480z" fill="url(#road)"/>
  <path d="M600 430v470" stroke="#ffffff" stroke-opacity=".35" stroke-width="10" stroke-dasharray="28 18"/>
  <g opacity=".92">
    <rect x="60" y="250" width="260" height="450" rx="18" fill="#2b2f36"/>
    <rect x="350" y="220" width="220" height="480" rx="18" fill="#36404a"/>
    <rect x="640" y="230" width="240" height="470" rx="18" fill="#2f3a45"/>
    <rect x="910" y="260" width="230" height="440" rx="18" fill="#29313a"/>
  </g>
  <g fill="#ffffff" opacity=".18">
    <rect x="90" y="290" width="60" height="46" rx="8"/>
    <rect x="170" y="290" width="60" height="46" rx="8"/>
    <rect x="250" y="290" width="40" height="46" rx="8"/>
    <rect x="380" y="260" width="70" height="50" rx="8"/>
    <rect x="470" y="260" width="70" height="50" rx="8"/>
    <rect x="680" y="270" width="70" height="50" rx="8"/>
    <rect x="770" y="270" width="70" height="50" rx="8"/>
    <rect x="940" y="300" width="70" height="50" rx="8"/>
    <rect x="1030" y="300" width="70" height="50" rx="8"/>
  </g>
  <g>
    <rect x="210" y="560" width="18" height="90" rx="9" fill="#2b2f36"/>
    <circle cx="219" cy="552" r="16" fill="#ffd5dc"/>
    <rect x="980" y="520" width="18" height="130" rx="9" fill="#2b2f36"/>
    <circle cx="989" cy="510" r="16" fill="#bae8e8"/>
  </g>
  <g opacity=".28">
    <circle cx="1020" cy="160" r="56" fill="#ffffff"/>
    <circle cx="170" cy="140" r="40" fill="#ffffff"/>
  </g>
</svg>
