<svg xmlns="http://www.w3.org/2000/svg" viewBox="0 0 1200 900" role="img" aria-label="旅行">
  <defs>
    <linearGradient id="sky" x1="0" y1="0" x2="0" y2="1">
      <stop offset="0" stop-color="#d1d4f9"/>
      <stop offset="1" stop-color="#b6e3f4"/>
    </linearGradient>
    <linearGradient id="sand" x1="0" y1="0" x2="1" y2="0">
      <stop offset="0" stop-color="#ffdfbf"/>
      <stop offset="1" stop-color="#ffd5dc"/>
    </linearGradient>
  </defs>
  <rect width="1200" height="900" fill="url(#sky)"/>
  <path d="M0 620c240-90 420-90 560 0 120 78 260 78 420 0 90-44 160-58 220-40v320H0z" fill="url(#sand)"/>
  <path d="M0 720c240-70 420-70 560 0 120 60 260 60 420 0 90-34 160-45 220-30v210H0z" fill="#e9c79f" opacity=".65"/>
  <g opacity=".85">
    <path d="M210 650c-20-90 20-170 100-210 80-40 170-15 230 60-120-40-220-15-330 80z" fill="#2f3a45"/>
    <path d="M520 690c-30-120 40-230 160-280 120-50 250-10 320 100-170-50-310-10-480 180z" fill="#29313a"/>
  </g>
  <g>
    <circle cx="980" cy="170" r="60" fill="#ffffff" opacity=".35"/>
    <circle cx="980" cy="170" r="36" fill="#ffffff" opacity=".25"/>
  </g>
  <path d="M180 820c190-180 350-240 520-220 170 20 280 90 500 250" fill="none" stroke="#ffffff" stroke-opacity=".28" stroke-width="10" stroke-linecap="round"/>
</svg>
