<svg xmlns="http://www.w3.org/2000/svg" viewBox="0 0 200 200" role="img" aria-label="头像">
  <defs>
    <linearGradient id="bg" x1="0" y1="1" x2="1" y2="0">
      <stop offset="0" stop-color="#ffd5dc"/>
      <stop offset="1" stop-color="#ffdfbf"/>
    </linearGradient>
    <linearGradient id="shirt" x1="0" y1="0" x2="0" y2="1">
      <stop offset="0" stop-color="#2b3a67"/>
      <stop offset="1" stop-color="#223055"/>
    </linearGradient>
  </defs>
  <rect width="200" height="200" rx="36" fill="url(#bg)"/>
  <circle cx="100" cy="94" r="54" fill="#f3caa7"/>
  <path d="M52 95c7-33 31-60 70-55 30 4 50 26 56 54-9-10-24-18-43-18-24 0-40 12-55 22-9 6-17 10-28 11z" fill="#2b2522"/>
  <circle cx="82" cy="102" r="6" fill="#1f2329"/>
  <circle cx="118" cy="102" r="6" fill="#1f2329"/>
  <path d="M86 121c9 8 19 8 28 0" fill="none" stroke="#7c3e35" stroke-width="6" stroke-linecap="round"/>
  <path d="M55 176c10-32 28-52 44-56 15 5 37 5 52 0 16 4 34 24 44 56" fill="url(#shirt)"/>
  <path d="M100 126v18" stroke="#ffffff" stroke-opacity=".18" stroke-width="6" stroke-linecap="round"/>
</svg>
