<svg xmlns="http://www.w3.org/2000/svg" viewBox="0 0 200 200" role="img" aria-label="头像">
  <defs>
    <linearGradient id="bg" x1="0" y1="0" x2="1" y2="1">
      <stop offset="0" stop-color="#b6e3f4"/>
      <stop offset="1" stop-color="#d1d4f9"/>
    </linearGradient>
    <linearGradient id="shirt" x1="0" y1="0" x2="0" y2="1">
      <stop offset="0" stop-color="#2f333a"/>
      <stop offset="1" stop-color="#3b3b3b"/>
    </linearGradient>
  </defs>
  <rect width="200" height="200" rx="36" fill="url(#bg)"/>
  <circle cx="100" cy="92" r="54" fill="#f2c9a8"/>
  <path d="M52 92c8-28 24-48 48-52 30-5 58 12 68 40-10-8-24-13-40-12-22 1-38 13-54 24-8 5-16 8-22 10z" fill="#1f2329"/>
  <path d="M67 95c3 9 11 16 21 18" fill="none" stroke="#d9a483" stroke-width="6" stroke-linecap="round"/>
  <path d="M133 95c-3 9-11 16-21 18" fill="none" stroke="#d9a483" stroke-width="6" stroke-linecap="round"/>
  <circle cx="82" cy="100" r="6" fill="#20242a"/>
  <circle cx="118" cy="100" r="6" fill="#20242a"/>
  <path d="M90 120c6 5 14 5 20 0" fill="none" stroke="#8a4b3f" stroke-width="6" stroke-linecap="round"/>
  <path d="M55 176c10-34 30-54 45-58 0 0 0 0 0 0 15 4 35 4 50 0 15 4 35 24 45 58" fill="url(#shirt)"/>
  <path d="M82 132h36" stroke="#ffffff" stroke-opacity=".18" stroke-width="6" stroke-linecap="round"/>
</svg>
