<svg xmlns="http://www.w3.org/2000/svg" viewBox="0 0 200 200" role="img" aria-label="头像">
  <defs>
    <linearGradient id="bg" x1="0" y1="0" x2="1" y2="1">
      <stop offset="0" stop-color="#c0aede"/>
      <stop offset="1" stop-color="#b6e3f4"/>
    </linearGradient>
  </defs>
  <rect width="200" height="200" rx="36" fill="url(#bg)"/>
  <circle cx="100" cy="92" r="54" fill="#f1c6a2"/>
  <path d="M52 92c6-30 26-55 58-55 28 0 49 16 62 42-13-7-26-9-41-7-18 2-32 13-46 23-9 7-18 12-33 13z" fill="#181c21"/>
  <path d="M73 100c8-6 16-6 24 0" fill="none" stroke="#1f2329" stroke-width="5" stroke-linecap="round"/>
  <path d="M103 100c8-6 16-6 24 0" fill="none" stroke="#1f2329" stroke-width="5" stroke-linecap="round"/>
  <path d="M90 122c6 4 14 4 20 0" fill="none" stroke="#7a3b33" stroke-width="6" stroke-linecap="round"/>
  <path d="M52 176c11-35 31-56 48-60 0 0 0 0 0 0 15 4 35 4 50 0 17 4 37 25 48 60" fill="#3b3b3b"/>
  <path d="M78 146h44" stroke="#bae8e8" stroke-opacity=".35" stroke-width="6" stroke-linecap="round"/>
</svg>
