<svg xmlns="http://www.w3.org/2000/svg" viewBox="0 0 200 200" role="img" aria-label="头像">
  <defs>
    <linearGradient id="bg" x1="0" y1="1" x2="1" y2="0">
      <stop offset="0" stop-color="#d1d4f9"/>
      <stop offset="1" stop-color="#ffdfbf"/>
    </linearGradient>
  </defs>
  <rect width="200" height="200" rx="36" fill="url(#bg)"/>
  <circle cx="100" cy="92" r="54" fill="#f2c9a8"/>
  <path d="M56 86c8-32 29-50 58-50 31 0 50 18 56 44-10-7-21-10-34-9-19 2-33 11-48 20-12 8-22 13-32 14z" fill="#2a1f1a"/>
  <circle cx="82" cy="100" r="6" fill="#1f2329"/>
  <circle cx="118" cy="100" r="6" fill="#1f2329"/>
  <path d="M92 121c4 2 12 2 16 0" fill="none" stroke="#7a3b33" stroke-width="6" stroke-linecap="round"/>
  <path d="M52 176c10-34 31-54 48-58 15 4 35 4 50 0 17 4 38 24 48 58" fill="#2b2f36"/>
  <path d="M74 136l26 22 26-22" fill="none" stroke="#ffffff" stroke-opacity=".16" stroke-width="6" stroke-linecap="round" stroke-linejoin="round"/>
</svg>
