<svg xmlns="http://www.w3.org/2000/svg" viewBox="0 0 200 200" role="img" aria-label="头像">
  <defs>
    <linearGradient id="bg" x1="0" y1="1" x2="1" y2="0">
      <stop offset="0" stop-color="#ffdfbf"/>
      <stop offset="1" stop-color="#c0aede"/>
    </linearGradient>
  </defs>
  <rect width="200" height="200" rx="36" fill="url(#bg)"/>
  <circle cx="100" cy="92" r="54" fill="#f1c6a2"/>
  <path d="M56 90c7-32 28-55 60-55 30 0 52 18 60 46-10-8-23-12-38-11-22 1-38 14-54 25-11 7-20 12-28 12z" fill="#23201f"/>
  <circle cx="82" cy="100" r="6" fill="#1f2329"/>
  <circle cx="118" cy="100" r="6" fill="#1f2329"/>
  <path d="M90 121c6 4 14 4 20 0" fill="none" stroke="#7a3b33" stroke-width="6" stroke-linecap="round"/>
  <path d="M52 176c10-34 30-55 48-60 15 4 35 4 50 0 18 5 38 26 48 60" fill="#29313a"/>
  <path d="M90 136h20" stroke="#bae8e8" stroke-opacity=".35" stroke-width="6" stroke-linecap="round"/>
</svg>
