<svg xmlns="http://www.w3.org/2000/svg" viewBox="0 0 200 200" role="img" aria-label="头像">
  <defs>
    <linearGradient id="bg" x1="0" y1="0" x2="1" y2="1">
      <stop offset="0" stop-color="#bae8e8"/>
      <stop offset="1" stop-color="#b6e3f4"/>
    </linearGradient>
  </defs>
  <rect width="200" height="200" rx="36" fill="url(#bg)"/>
  <circle cx="100" cy="92" r="54" fill="#f3caa7"/>
  <path d="M54 92c6-28 22-48 46-54 30-7 60 10 72 40-11-6-23-8-37-6-22 4-36 18-52 28-9 6-17 9-29 10z" fill="#15181d"/>
  <circle cx="82" cy="102" r="6" fill="#1f2329"/>
  <circle cx="118" cy="102" r="6" fill="#1f2329"/>
  <path d="M88 120c7 6 17 6 24 0" fill="none" stroke="#7c3e35" stroke-width="6" stroke-linecap="round"/>
  <path d="M52 176c10-34 30-55 48-60 15 4 35 4 50 0 18 5 38 26 48 60" fill="#3b3b3b"/>
  <path d="M64 154h72" stroke="#ffffff" stroke-opacity=".14" stroke-width="6" stroke-linecap="round"/>
</svg>
